<svg width="22" height="21" viewBox="0 0 22 21" fill="none" xmlns="http://www.w3.org/2000/svg">
<rect width="21.2331" height="21" fill="black" fill-opacity="0"/>
<rect width="21.2331" height="21" fill="black" fill-opacity="0"/>
<path d="M20.4316 0.793096C19.897 0.264286 19.2564 0 18.5102 0H2.72339C1.97687 0 1.33649 0.264381 0.801807 0.793096C0.267221 1.32167 0 1.95511 0 2.69328V18.3065C0 19.0446 0.267172 19.6782 0.801807 20.2068C1.33649 20.7355 1.97702 21 2.72339 21H18.51C19.2561 21 19.8969 20.7355 20.4314 20.2068C20.9661 19.6782 21.2331 19.0446 21.2331 18.3065V2.69328C21.233 1.95497 20.9661 1.32186 20.4316 0.793096ZM7.624 7.56726C8.45795 6.76986 9.46021 6.37096 10.6306 6.37096C11.8101 6.37096 12.8169 6.76986 13.651 7.56726C14.4852 8.36481 14.902 9.32877 14.902 10.4589C14.902 11.589 14.4852 12.553 13.651 13.3503C12.8169 14.148 11.8104 14.5469 10.6306 14.5469C9.46026 14.5469 8.4581 14.1477 7.624 13.3503C6.78985 12.5529 6.37282 11.589 6.37282 10.4589C6.37282 9.32877 6.78985 8.36486 7.624 7.56726ZM18.8281 17.7462C18.8281 17.983 18.745 18.1812 18.5792 18.3408C18.413 18.5002 18.2152 18.58 17.9845 18.58H3.20728C2.9677 18.58 2.76711 18.5002 2.60597 18.3408C2.44459 18.1815 2.36398 17.983 2.36398 17.7462V8.88654H4.31306C4.12882 9.46084 4.03668 10.0579 4.03668 10.6776C4.03668 12.428 4.68171 13.9202 5.97192 15.1555C7.26226 16.3903 8.81509 17.008 10.6306 17.008C11.8286 17.008 12.9345 16.7253 13.9485 16.1603C14.9623 15.5949 15.7636 14.8271 16.3538 13.8563C16.9437 12.8856 17.2386 11.826 17.2386 10.6776C17.2386 10.058 17.1461 9.46103 16.9619 8.88658H18.8282V17.7463H18.8281V17.7462ZM18.8281 5.53692C18.8281 5.80126 18.736 6.0246 18.5514 6.20686C18.3671 6.38926 18.1415 6.48034 17.8741 6.48034H15.4688C15.2017 6.48034 14.9757 6.38921 14.7915 6.20686C14.6072 6.0246 14.5151 5.80126 14.5151 5.53692V3.28128C14.5151 3.02604 14.6072 2.80505 14.7915 2.61815C14.9757 2.43134 15.2018 2.33782 15.4688 2.33782H17.8741C18.1415 2.33782 18.3672 2.43129 18.5514 2.61815C18.736 2.80505 18.8281 3.02604 18.8281 3.28128V5.53692Z" fill="#E2E5FF"/>
</svg>
