<svg width="22" height="21" viewBox="0 0 22 21" fill="none" xmlns="http://www.w3.org/2000/svg">
<rect width="21.2329" height="21" fill="black" fill-opacity="0" transform="translate(0.511276)"/>
<rect width="21.2329" height="21" fill="black" fill-opacity="0" transform="translate(0.511276)"/>
<path d="M20.5762 1.15517C19.7977 0.385103 18.8599 0 17.7633 0H4.49247C3.39589 0 2.45803 0.385103 1.67927 1.15517C0.900656 1.92537 0.511276 2.85289 0.511276 3.93747V17.0624C0.511276 18.1469 0.900656 19.0745 1.67927 19.8447C2.45803 20.6149 3.39589 21 4.49247 21H17.7632C18.8597 21 19.7976 20.6149 20.576 19.8447C21.3548 19.0745 21.7442 18.1469 21.7442 17.0624V3.93747C21.7441 2.85289 21.3547 1.92523 20.5762 1.15517ZM6.98069 17.5819H3.78741V8.09358H6.98069V17.5819ZM6.69057 6.33692C6.35885 6.65139 5.92106 6.80865 5.37727 6.80865H5.36332C4.83808 6.80865 4.412 6.65139 4.08474 6.33692C3.75743 6.02245 3.59388 5.63284 3.59388 5.16801C3.59388 4.69407 3.76218 4.30207 4.09844 3.99211C4.43495 3.68223 4.87033 3.52722 5.40477 3.52722C5.93926 3.52722 6.36781 3.68223 6.69042 3.99211C7.01294 4.30207 7.17887 4.69407 7.18802 5.16801C7.18797 5.63265 7.02228 6.02225 6.69057 6.33692ZM18.4682 17.5819H15.2749V12.5097C15.2749 11.0789 14.7405 10.3633 13.6715 10.3633C13.266 10.3633 12.9249 10.4749 12.6485 10.6983C12.3718 10.9215 12.1645 11.1927 12.0265 11.5119C11.9618 11.6758 11.9297 11.9309 11.9297 12.2772V17.5818H8.73639C8.76403 11.858 8.76403 8.69509 8.73639 8.09349H11.9297V9.43307C12.6011 8.39484 13.5545 7.87465 14.7912 7.87465C15.8971 7.87465 16.7866 8.23475 17.4593 8.95468C18.1321 9.67475 18.4684 10.7367 18.4684 12.14V17.5819H18.4682Z" fill="#E2E5FF"/>
</svg>
