<svg width="22" height="21" viewBox="0 0 22 21" fill="none" xmlns="http://www.w3.org/2000/svg">
<rect width="21.2329" height="21" fill="black" fill-opacity="0"/>
<rect width="21.2329" height="21" fill="black" fill-opacity="0"/>
<path d="M20.0649 1.15517C19.2865 0.385103 18.3486 0 17.252 0H3.9812C2.88462 0 1.94676 0.385103 1.168 1.15517C0.38938 1.92537 0 2.85289 0 3.93747V17.0624C0 18.1469 0.38938 19.0745 1.168 19.8447C1.94676 20.6149 2.88462 21 3.9812 21H17.2519C18.3485 21 19.2863 20.6149 20.0647 19.8447C20.8435 19.0745 21.2329 18.1469 21.2329 17.0624V3.93747C21.2328 2.85289 20.8435 1.92523 20.0649 1.15517ZM18.0674 10.8007H15.6483V19.4821H12.0265V10.8007H10.2156V7.80646H12.0265V6.01541C12.0265 4.73023 12.3307 3.75962 12.9389 3.10328C13.547 2.44695 14.5514 2.11898 15.9525 2.11898H18.3717V5.11313H16.8513C16.335 5.11313 16.0055 5.20186 15.8627 5.37976C15.7199 5.55747 15.6483 5.86964 15.6483 6.31632V7.8065H18.3856L18.0674 10.8007Z" fill="#E2E5FF"/>
</svg>
