<svg width="22" height="21" viewBox="0 0 22 21" fill="none" xmlns="http://www.w3.org/2000/svg">
<rect width="21.2331" height="21" fill="black" fill-opacity="0"/>
<rect width="21.2331" height="21" fill="black" fill-opacity="0"/>
<rect width="21.2331" height="21" fill="black" fill-opacity="0"/>
<path d="M20.065 1.15517C19.2863 0.385103 18.3488 0 17.2519 0H3.9812C2.88462 0 1.9468 0.385103 1.168 1.15517C0.38938 1.92537 0 2.85289 0 3.93747V17.0626C0 18.1472 0.38938 19.0746 1.168 19.8447C1.94676 20.6149 2.88462 21 3.9812 21H7.07769C7.28027 21 7.43245 20.9931 7.53379 20.9797C7.63508 20.9659 7.73638 20.9066 7.83781 20.8017C7.9393 20.697 7.98985 20.5443 7.98985 20.3438C7.98985 20.3166 7.98742 20.0064 7.98287 19.414C7.97818 18.8214 7.9759 18.3521 7.9759 18.0057L7.65794 18.0604C7.45521 18.0968 7.19946 18.1128 6.8907 18.1082C6.58208 18.1036 6.26175 18.0718 5.93003 18.0126C5.59813 17.9532 5.28951 17.8166 5.00379 17.6025C4.71822 17.3882 4.51549 17.108 4.39566 16.7617L4.25737 16.447C4.16523 16.2376 4.02017 16.0051 3.822 15.7501C3.62382 15.4948 3.42342 15.3216 3.22069 15.2304L3.1239 15.1621C3.05946 15.1165 2.99956 15.0616 2.94422 14.9979C2.88898 14.9339 2.84753 14.8701 2.81988 14.8065C2.79224 14.7425 2.81519 14.6901 2.88898 14.649C2.96277 14.608 3.09625 14.5877 3.28988 14.5877L3.56625 14.6287C3.75063 14.665 3.97858 14.7743 4.2506 14.9567C4.52242 15.139 4.74587 15.3759 4.921 15.6675C5.13307 16.0413 5.38857 16.3259 5.68823 16.5219C5.98765 16.7181 6.28954 16.8161 6.59361 16.8161C6.89767 16.8161 7.16029 16.7933 7.38157 16.7479C7.6026 16.7022 7.80997 16.6337 8.0036 16.5426C8.08654 15.932 8.31236 15.4623 8.68087 15.1342C8.15563 15.0795 7.68336 14.9976 7.26391 14.8881C6.8447 14.7786 6.41151 14.601 5.9646 14.3548C5.51751 14.1087 5.14663 13.8036 4.85171 13.4388C4.55684 13.074 4.31485 12.5955 4.12606 12.0032C3.93718 11.4106 3.84272 10.727 3.84272 9.9523C3.84272 8.84952 4.20687 7.91056 4.93489 7.1359C4.59383 6.30651 4.62603 5.37694 5.03158 4.3469C5.29885 4.26482 5.6952 4.3264 6.22045 4.5315C6.74579 4.73674 7.13042 4.91224 7.37474 5.05787C7.61906 5.20354 7.81481 5.3267 7.9623 5.42707C8.81954 5.19008 9.70419 5.07161 10.6165 5.07161C11.5287 5.07161 12.4135 5.19008 13.2708 5.42707L13.7961 5.09895C14.1557 4.88011 14.5795 4.67961 15.068 4.4974C15.5565 4.31515 15.9296 4.26496 16.1878 4.34704C16.6024 5.37708 16.6394 6.30665 16.2981 7.136C17.0262 7.91075 17.3904 8.84966 17.3904 9.95244C17.3904 10.7272 17.2959 11.4132 17.1071 12.0101C16.9183 12.6071 16.6743 13.0858 16.3745 13.4458C16.0751 13.8058 15.7018 14.1087 15.2549 14.3549C14.8079 14.6009 14.3747 14.7789 13.9553 14.888C13.536 14.9975 13.0637 15.0797 12.5385 15.1345C13.0174 15.5445 13.2569 16.1914 13.2569 17.0757V20.3434C13.2569 20.4984 13.2798 20.6236 13.3259 20.7193C13.3723 20.815 13.4459 20.8809 13.5472 20.9176C13.649 20.954 13.7384 20.9768 13.8169 20.9858C13.8955 20.995 14.0081 20.9996 14.1556 20.9996H17.2521C18.3487 20.9996 19.2866 20.6145 20.065 19.8443C20.8437 19.0741 21.2331 18.1465 21.2331 17.062V3.93747C21.233 2.85289 20.8436 1.92523 20.065 1.15517Z" fill="#E2E5FF"/>
</svg>
