<svg width="12" height="24" viewBox="0 0 12 24" fill="none" xmlns="http://www.w3.org/2000/svg">
<rect width="11.2571" height="24" fill="black" fill-opacity="0"/>
<rect width="11.2571" height="24" fill="black" fill-opacity="0"/>
<path d="M2.43316 4.64804C2.43316 5.25285 2.43316 7.95237 2.43316 7.95237H0V11.9929H2.43316V24H7.43138V11.9932H10.7854C10.7854 11.9932 11.0995 10.0558 11.2518 7.93747C10.8153 7.93747 7.45028 7.93747 7.45028 7.93747C7.45028 7.93747 7.45028 5.58681 7.45028 5.17478C7.45028 4.76187 7.99524 4.20644 8.53386 4.20644C9.07147 4.20644 10.2061 4.20644 11.2571 4.20644C11.2571 3.65631 11.2571 1.75551 11.2571 1.44334e-08C9.85411 1.44334e-08 8.25799 1.44334e-08 7.55443 1.44334e-08C2.30961 -0.000278983 2.43316 4.04429 2.43316 4.64804Z" fill="white"/>
</svg>
