<svg width="32" height="24" viewBox="0 0 32 24" fill="none" xmlns="http://www.w3.org/2000/svg">
<rect width="31.4531" height="24" fill="black" fill-opacity="0" transform="translate(0.409943)"/>
<rect width="31.4531" height="24" fill="black" fill-opacity="0" transform="translate(0.409943)"/>
<path d="M23.3739 0C23.7828 0.92417 24.0477 2.45912 23.6524 3.58294C25.2687 4.9565 25.8244 8.29562 25.044 11.0243C27.3478 11.1993 30.0919 10.9401 31.8631 11.6438C30.2072 11.4319 27.9457 11.0163 25.8101 11.161C25.4054 11.1885 24.806 11.1457 24.8354 11.7123C27.3076 11.9053 29.7644 12.1158 31.7942 12.7464C29.7809 12.4191 27.337 11.9203 24.8354 11.8511C23.802 13.8806 21.7222 14.8782 18.8513 15.0883C19.1598 15.7568 19.7508 16.0111 19.8951 17.0862C20.1104 18.6924 19.5583 21.0448 20.1031 22.1154C20.3645 22.6284 20.7905 22.642 21.0778 23.0806C20.3746 23.9088 18.6314 22.9874 18.4329 22.1154C18.0929 20.6215 18.9509 18.3057 18.0163 17.2928C18.0821 18.9224 17.6291 21.2107 18.0859 22.6663C18.2659 23.2389 18.7856 23.4597 18.6426 23.9762C15.3743 24.3063 16.7404 19.7662 16.206 17.0858C15.7129 17.121 15.9296 17.8208 15.9279 18.1196C15.9139 20.7366 16.4661 24.3262 13.6318 23.9762C13.549 23.426 14.012 23.2392 14.1885 22.7369C14.7054 21.2646 14.0917 19.0702 14.3286 17.2931C13.247 18.105 14.4422 20.9383 13.7719 22.3912C13.3858 23.2274 12.1413 23.5912 11.1973 23.218C11.3203 22.5954 11.9662 22.6959 12.2402 22.1157C12.6232 21.3074 12.243 20.1422 12.3796 18.9467C10.3774 19.3446 8.82435 18.889 8.06423 17.6375C7.72419 17.0758 7.63997 16.4131 7.22898 15.9154C6.82009 15.4173 6.16656 15.3502 5.97714 14.6761C8.4567 14.082 8.55176 17.2159 10.7786 17.2931C11.4615 17.3178 11.8166 17.0973 12.4484 16.9495C12.6253 16.1592 13.0038 15.5697 13.5619 15.1572C10.7909 14.7798 8.50248 13.921 7.43832 11.8514C4.91927 11.9746 2.61411 12.3095 0.479139 12.8152C2.417 12.1147 4.80709 11.8636 7.36912 11.7812C7.21814 10.8782 5.89467 11.1266 5.07304 11.1613C3.54582 11.2281 1.62368 11.417 0.409943 11.6438C2.16922 11.0194 4.63794 11.0973 7.02139 11.0925C6.29237 8.8177 6.54505 5.20415 8.13483 3.85842C7.68435 2.72834 7.82414 0.879996 8.41301 0C10.188 0.079304 11.2644 0.849735 12.3796 1.58504C13.7625 1.19373 15.2167 0.998952 17.1115 1.1026C17.9084 1.14643 18.737 1.50295 19.3374 1.4466C19.9263 1.39165 20.5752 0.73391 21.147 0.48278C21.8917 0.155477 22.5218 0.0306086 23.3739 0Z" fill="white"/>
</svg>
