<svg width="25" height="24" viewBox="0 0 25 24" fill="none" xmlns="http://www.w3.org/2000/svg">
<rect width="24.4099" height="24" fill="black" fill-opacity="0" transform="translate(0.161484)"/>
<rect width="24.4099" height="24" fill="black" fill-opacity="0" transform="translate(0.161484)"/>
<path d="M24.5714 14.7144V24H19.3396V15.3363C19.3396 13.1599 18.5829 11.6746 16.6891 11.6746C15.2435 11.6746 14.3832 12.6756 14.0047 13.6438C13.8667 13.99 13.8311 14.4718 13.8311 14.9564V24H8.59753C8.59753 24 8.66802 9.3265 8.59753 7.80621H13.8306V10.1016C13.82 10.1188 13.8062 10.1373 13.7962 10.1539H13.8306V10.1016C14.5259 8.99978 15.7676 7.42577 18.5468 7.42577C21.9901 7.42572 24.5714 9.74027 24.5714 14.7144ZM3.12297 0C1.33256 0 0.161484 1.20834 0.161484 2.79736C0.161484 4.35175 1.29868 5.59676 3.0535 5.59676H3.08846C4.91354 5.59676 6.04858 4.35198 6.04858 2.79736C6.01419 1.20834 4.91354 0 3.12297 0ZM0.472314 24H5.70393V7.80621H0.472314V24Z" fill="white"/>
</svg>
