<svg width="25" height="24" viewBox="0 0 25 24" fill="none" xmlns="http://www.w3.org/2000/svg">
<rect width="24.4099" height="24" fill="black" fill-opacity="0" transform="translate(0.590057)"/>
<rect width="24.4099" height="24" fill="black" fill-opacity="0" transform="translate(0.590057)"/>
<rect width="24.4099" height="24" fill="black" fill-opacity="0" transform="translate(0.590057)"/>
<path d="M17.3719 0H8.21816C4.00592 0 0.590057 3.3585 0.590057 7.5V16.5C0.590057 20.6415 4.00592 24 8.21816 24H17.3719C21.5841 24 25 20.6415 25 16.5V7.5C25 3.3585 21.5841 0 17.3719 0ZM22.7116 16.5C22.7116 19.395 20.3163 21.75 17.3719 21.75H8.21816C5.27371 21.75 2.87849 19.395 2.87849 16.5V7.5C2.87849 4.605 5.27371 2.25 8.21816 2.25H17.3719C20.3163 2.25 22.7116 4.605 22.7116 7.5V16.5Z" fill="white"/>
<rect width="12.205" height="12" fill="black" fill-opacity="0" transform="translate(6.69255 6)"/>
<rect width="12.205" height="12" fill="black" fill-opacity="0" transform="translate(6.69255 6)"/>
<path d="M12.795 6C9.42494 6 6.69255 8.6865 6.69255 12C6.69255 15.3135 9.42494 18 12.795 18C16.1651 18 18.8975 15.3135 18.8975 12C18.8975 8.6865 16.1651 6 12.795 6ZM12.795 15.75C10.6927 15.75 8.98098 14.067 8.98098 12C8.98098 9.9315 10.6927 8.25 12.795 8.25C14.8973 8.25 16.6091 9.9315 16.6091 12C16.6091 14.067 14.8973 15.75 12.795 15.75Z" fill="white"/>
<rect width="1.62631" height="1.599" fill="black" fill-opacity="0" transform="translate(18.5421 4.7505)"/>
<rect width="1.62631" height="1.599" fill="black" fill-opacity="0" transform="translate(18.5421 4.7505)"/>
<path d="M19.3552 6.3495C19.8043 6.3495 20.1684 5.99156 20.1684 5.55C20.1684 5.10845 19.8043 4.7505 19.3552 4.7505C18.9061 4.7505 18.5421 5.10845 18.5421 5.55C18.5421 5.99156 18.9061 6.3495 19.3552 6.3495Z" fill="white"/>
</svg>
