<?xml version="1.0" standalone="no"?>
<!DOCTYPE svg PUBLIC "-//W3C//DTD SVG 20010904//EN"
 "http://www.w3.org/TR/2001/REC-SVG-20010904/DTD/svg10.dtd">
<svg version="1.0" xmlns="http://www.w3.org/2000/svg"
 width="700.000000pt" height="700.000000pt" viewBox="0 0 700.000000 700.000000"
 preserveAspectRatio="xMidYMid meet">
<metadata>
Created by potrace 1.11, written by Peter Selinger 2001-2013
</metadata>
<g transform="translate(0.000000,700.000000) scale(0.100000,-0.100000)"
fill="#000000" stroke="none">
<path d="M208 6498 c-2 -277 -2 -574 0 -661 l3 -157 410 0 c268 1 408 4 404
11 -4 5 3 26 14 45 12 19 21 41 21 49 0 8 5 17 12 21 7 5 8 3 3 -6 -5 -9 -4
-11 4 -6 6 4 9 11 6 16 -8 13 67 170 77 164 4 -3 5 2 2 10 -3 9 -1 16 6 16 6
0 9 4 5 9 -7 13 16 62 26 55 5 -3 6 2 3 10 -3 9 -1 16 5 16 6 0 10 3 10 8 -3
20 2 32 13 26 6 -4 8 -3 4 4 -3 6 6 36 20 67 20 41 29 53 36 43 7 -9 8 -8 4 5
-3 10 1 34 9 54 12 29 15 96 15 369 l0 334 -555 0 -555 0 -2 -502z"/>
<path d="M1295 6100 c-3 -5 -1 -10 4 -10 6 0 11 5 11 10 0 6 -2 10 -4 10 -3 0
-8 -4 -11 -10z"/>
<path d="M1196 6002 c-3 -5 1 -9 9 -9 8 0 12 4 9 9 -3 4 -7 8 -9 8 -2 0 -6 -4
-9 -8z"/>
<path d="M1196 5927 c3 -10 9 -15 12 -12 3 3 0 11 -7 18 -10 9 -11 8 -5 -6z"/>
<path d="M1176 5902 c-3 -5 1 -9 9 -9 8 0 12 4 9 9 -3 4 -7 8 -9 8 -2 0 -6 -4
-9 -8z"/>
<path d="M1115 5859 c-3 -4 2 -6 10 -5 21 3 28 13 10 13 -9 0 -18 -4 -20 -8z"/>
<path d="M1090 5741 c0 -6 4 -13 10 -16 6 -3 7 1 4 9 -7 18 -14 21 -14 7z"/>
</g>
</svg>
